# xmcd
#
# Track frame offsets: 
#        150
#        15004
#        31165
#        46109
#        63803
#        82817
#        95155
#        112170
#        124973
#        142411
#        161484
#
# Disc length: 2968 seconds
#
# Revision: 0
# Processed by: cddbd v1.5.2PL0 Copyright (c) Steve Scherf et al.
# Submitted via: ExactAudioCopy v0.95a3
#
DISCID=880b960b
DTITLE=Myrol  - Your Heart Is My Heart Too
DYEAR=2006
DGENRE=Country
TTITLE0=Mother Daughter
TTITLE1=It Don't Work That Way
TTITLE2=You Made Me Hard
TTITLE3=Summer
TTITLE4=Somwhere Inside
TTITLE5=Southrailway and Second Street
TTITLE6=Paper Thin Walls
TTITLE7=Quintessential Cowboy
TTITLE8=If Hearts Could Really Be Broken
TTITLE9=Hoadley Road
TTITLE10=The Beat Goes On
EXTD=
EXTT0=
EXTT1=
EXTT2=
EXTT3=
EXTT4=
EXTT5=
EXTT6=
EXTT7=
EXTT8=
EXTT9=
EXTT10=
PLAYORDER=
